<svg width="24" height="19" viewBox="0 0 24 19" fill="none" xmlns="http://www.w3.org/2000/svg">
<path d="M5.00002 19C4.71669 19 4.45836 18.9125 4.22502 18.7375C3.99169 18.5625 3.83336 18.3333 3.75002 18.05L0.950025 7.95C0.866691 7.71667 0.904191 7.5 1.06252 7.3C1.22086 7.1 1.43336 7 1.70002 7H6.75002L11.15 0.45C11.2334 0.316667 11.35 0.208333 11.5 0.125C11.65 0.0416667 11.8084 0 11.975 0C12.1417 0 12.3 0.0416667 12.45 0.125C12.6 0.208333 12.7167 0.316667 12.8 0.45L17.2 7H22.3C22.5667 7 22.7792 7.1 22.9375 7.3C23.0959 7.5 23.1334 7.71667 23.05 7.95L20.25 18.05C20.1667 18.3333 20.0084 18.5625 19.775 18.7375C19.5417 18.9125 19.2834 19 19 19H5.00002ZM5.50002 17H18.5L20.7 9H3.30002L5.50002 17ZM9.17502 7H14.8L11.975 2.8L9.17502 7Z" fill="white"/>
</svg>
