<svg width="14" height="16" viewBox="0 0 14 16" fill="none" xmlns="http://www.w3.org/2000/svg">
<path fill-rule="evenodd" clip-rule="evenodd" d="M4 4.99997C4 4.20432 4.31607 3.44126 4.87868 2.87865C5.44129 2.31604 6.20435 1.99997 7 1.99997C7.79565 1.99997 8.55871 2.31604 9.12132 2.87865C9.68393 3.44126 10 4.20432 10 4.99997C10 5.79562 9.68393 6.55868 9.12132 7.12129C8.55871 7.6839 7.79565 7.99997 7 7.99997C6.20435 7.99997 5.44129 7.6839 4.87868 7.12129C4.31607 6.55868 4 5.79562 4 4.99997ZM10.291 8.76397C11.057 8.09429 11.6004 7.20687 11.8488 6.2202C12.0971 5.23353 12.0385 4.19457 11.6809 3.24207C11.3232 2.28957 10.6835 1.46884 9.84707 0.889498C9.01067 0.310152 8.01744 -0.000244141 7 -0.000244141C5.98256 -0.000244141 4.98933 0.310152 4.15293 0.889498C3.31654 1.46884 2.6768 2.28957 2.31913 3.24207C1.96146 4.19457 1.90289 5.23353 2.15123 6.2202C2.39958 7.20687 2.94302 8.09429 3.709 8.76397C1.525 9.84497 0 11.974 0 14.5C0 14.7652 0.105357 15.0195 0.292893 15.2071C0.48043 15.3946 0.734784 15.5 1 15.5C1.26522 15.5 1.51957 15.3946 1.70711 15.2071C1.89464 15.0195 2 14.7652 2 14.5C2 12.095 4.155 9.99997 7 9.99997C9.845 9.99997 12 12.095 12 14.5C12 14.7652 12.1054 15.0195 12.2929 15.2071C12.4804 15.3946 12.7348 15.5 13 15.5C13.2652 15.5 13.5196 15.3946 13.7071 15.2071C13.8946 15.0195 14 14.7652 14 14.5C14 11.974 12.475 9.84497 10.291 8.76397Z" fill="white"/>
</svg>
