<svg width="24" height="16" viewBox="0 0 24 16" fill="none" xmlns="http://www.w3.org/2000/svg">
<path fill-rule="evenodd" clip-rule="evenodd" d="M23.8216 4.00475C23.8259 4.43929 22.68 4.79657 22.2407 4.79315C22.2089 4.79154 22.1771 4.78993 22.1328 4.78138L21.3642 4.72348L19.9178 7.53928C19.8692 7.65641 19.8409 7.73681 19.7263 7.73729L19.3313 7.74241C19.0702 7.74175 19.0973 7.69277 19.1277 7.54954L19.6847 5.04109L19.6737 4.61879L19.2797 4.59249C18.8018 4.59971 18.2136 4.48172 17.74 4.36326L17.0755 5.35556C16.968 5.52005 16.9987 5.55309 16.8841 5.55356C16.623 5.5529 16.6684 5.53002 16.6805 5.36068L16.861 4.18016C16.8563 4.12957 16.871 4.07366 16.9039 4.04386C16.8981 4.02469 16.8731 4.01083 16.8799 3.99858C16.8742 3.97941 16.9003 3.96185 16.9332 3.93204C16.8832 3.90433 16.866 3.84681 16.8614 3.79621L16.6468 2.62082C16.6272 2.44987 16.5897 2.42908 16.8383 2.42282C16.9529 2.42234 16.9326 2.45908 17.0418 2.61569L17.7522 3.63371C18.2151 3.50614 18.7916 3.40951 19.2627 3.41454L19.652 3.39024L19.641 2.96794L19.0072 0.455695C18.974 0.309233 18.9376 0.257027 19.1987 0.257692L19.5937 0.252566C19.7083 0.252091 19.7312 0.328786 19.7905 0.457688L21.3375 3.26808L22.1037 3.21255C22.148 3.22109 22.1865 3.21046 22.2183 3.21207C22.6576 3.21549 23.8174 3.5702 23.8216 4.00475ZM0.175981 11.7462C0.186899 11.3118 1.34451 10.9947 1.78345 11.0135C1.81516 11.0162 1.84688 11.0189 1.89084 11.029L2.65699 11.1137L4.20081 8.35009C4.25345 8.23472 4.28446 8.15536 4.39906 8.15889L4.79404 8.16755C5.05495 8.17733 5.02611 8.22533 4.99075 8.36741L4.34651 10.8549L4.3428 11.2773L4.7356 11.3173C5.21346 11.3268 5.79724 11.4653 6.26642 11.6002L6.96507 10.6317C7.07827 10.471 7.04873 10.4369 7.16333 10.4405C7.42424 10.4502 7.37811 10.4715 7.36005 10.6403L7.13849 11.8138C7.14136 11.8646 7.12476 11.9199 7.09088 11.9486C7.09592 11.9679 7.12043 11.9826 7.11321 11.9946C7.11826 12.014 7.09158 12.0307 7.0577 12.0593C7.1067 12.0887 7.12183 12.1468 7.1247 12.1975L7.29811 13.3797C7.31176 13.5512 7.34851 13.5733 7.09985 13.5709C6.98525 13.5674 7.00689 13.5314 6.90314 13.371L6.22876 12.3289C5.76168 12.4402 5.18218 12.5167 4.71153 12.4952L4.32159 12.5059L4.31789 12.9283L4.8636 15.4611C4.89167 15.6087 4.92625 15.6621 4.66534 15.6523L4.27037 15.6437C4.15577 15.6401 4.13561 15.5627 4.08086 15.4318L2.63284 12.5691L1.86523 12.5979C1.82126 12.5878 1.78234 12.5971 1.75063 12.5944C1.31169 12.5756 0.165062 12.1807 0.175981 11.7462ZM1.99996 4.99997C1.44768 4.99997 0.999964 4.55226 0.999964 3.99997C0.999964 3.44769 1.44768 2.99997 1.99996 2.99997C2.55225 2.99997 2.99996 3.44769 2.99996 3.99997C2.99996 4.55226 2.55225 4.99997 1.99996 4.99997ZM3.99996 4.24997C3.86189 4.24997 3.74996 4.13804 3.74996 3.99997C3.74996 3.8619 3.86189 3.74997 3.99996 3.74997H4.99996C5.13803 3.74997 5.24996 3.8619 5.24996 3.99997C5.24996 4.13804 5.13803 4.24997 4.99996 4.24997H3.99996ZM6.49996 4.24997C6.36189 4.24997 6.24996 4.13804 6.24996 3.99997C6.24996 3.8619 6.36189 3.74997 6.49996 3.74997H7.49996C7.63803 3.74997 7.74996 3.8619 7.74996 3.99997C7.74996 4.13804 7.63803 4.24997 7.49996 4.24997H6.49996ZM8.99996 4.24997C8.86189 4.24997 8.74996 4.13804 8.74996 3.99997C8.74996 3.8619 8.86189 3.74997 8.99996 3.74997H9.99996C10.138 3.74997 10.25 3.8619 10.25 3.99997C10.25 4.13804 10.138 4.24997 9.99996 4.24997H8.99996ZM11.5 4.24997C11.3619 4.24997 11.25 4.13804 11.25 3.99997C11.25 3.8619 11.3619 3.74997 11.5 3.74997H12.5C12.638 3.74997 12.75 3.8619 12.75 3.99997C12.75 4.13804 12.638 4.24997 12.5 4.24997H11.5ZM14 4.24997C13.8619 4.24997 13.75 4.13804 13.75 3.99997C13.75 3.8619 13.8619 3.74997 14 3.74997H15C15.138 3.74997 15.25 3.8619 15.25 3.99997C15.25 4.13804 15.138 4.24997 15 4.24997H14ZM22 13.0108C21.4477 13.0108 21 12.5631 21 12.0108C21 11.4585 21.4477 11.0108 22 11.0108C22.5522 11.0108 23 11.4585 23 12.0108C23 12.5631 22.5522 13.0108 22 13.0108ZM19.2552 12.2608H18.2552C18.1171 12.2608 18.0052 12.1489 18.0052 12.0108C18.0052 11.8727 18.1171 11.7608 18.2552 11.7608H19.2552C19.3933 11.7608 19.5052 11.8727 19.5052 12.0108C19.5052 12.1489 19.3933 12.2608 19.2552 12.2608ZM16.7552 12.2608H15.7552C15.6171 12.2608 15.5052 12.1489 15.5052 12.0108C15.5052 11.8727 15.6171 11.7608 15.7552 11.7608H16.7552C16.8933 11.7608 17.0052 11.8727 17.0052 12.0108C17.0052 12.1489 16.8933 12.2608 16.7552 12.2608ZM14.2552 12.2608H13.2552C13.1171 12.2608 13.0052 12.1489 13.0052 12.0108C13.0052 11.8727 13.1171 11.7608 13.2552 11.7608H14.2552C14.3933 11.7608 14.5052 11.8727 14.5052 12.0108C14.5052 12.1489 14.3933 12.2608 14.2552 12.2608ZM11.7552 12.2608H10.7552C10.6171 12.2608 10.5052 12.1489 10.5052 12.0108C10.5052 11.8727 10.6171 11.7608 10.7552 11.7608H11.7552C11.8933 11.7608 12.0052 11.8727 12.0052 12.0108C12.0052 12.1489 11.8933 12.2608 11.7552 12.2608ZM9.25521 12.2608H8.25521C8.11713 12.2608 8.00521 12.1489 8.00521 12.0108C8.00521 11.8727 8.11713 11.7608 8.25521 11.7608H9.25521C9.39328 11.7608 9.50521 11.8727 9.50521 12.0108C9.50521 12.1489 9.39328 12.2608 9.25521 12.2608Z" fill="#11397E"/>
</svg>
