<?xml version='1.0' encoding='iso-8859-1'?>
<svg version="1.1" xmlns="http://www.w3.org/2000/svg" viewBox="0 0 44 44" xmlns:xlink="http://www.w3.org/1999/xlink" enable-background="new 0 0 44 44">
  <path fill="#EEC900" d="m22,0c-12.2,0-22,9.8-22,22s9.8,22 22,22 22-9.8 22-22-9.8-22-22-22zm-1.8,16h2.8c0.6,0 1,0.4 1,1v2c0,0.6-0.4,1-1,1h-5.4c-0.2,0-0.5,0.2-0.5,0.4-0.1,0.5-0.1,1-0.1,1.6 0,0.5 0,1.1 0.1,1.6 0,0.2 0.3,0.4 0.5,0.4h5.4c0.6,0 1,0.4 1,1v2c0,0.6-0.4,1-1,1h-2.8c-0.4,0-0.7,0.6-0.4,0.9 1.4,1.3 3.2,2.1 5.2,2.1 3,0 4.8-2 5.7-2.9l.1-.1c0.4-0.4 1-0.4 1.4-0.1l1.5,1.3c0.2,0.2 0.3,0.4 0.3,0.7s-0.1,0.5-0.3,0.7c-1.1,1.1-3.9,4.3-8.7,4.3-4.5,0-8.5-2.7-10.5-6.7-0.1-0.2-0.3-0.3-0.4-0.3h-3.1c-0.6,0-1-0.4-1-1v-2c0-0.6 0.4-1 1-1h1.6c0.3,0 0.5-0.3 0.5-0.6-0.1-0.5-0.1-1-0.1-1.4s0-1 0.1-1.4c0-0.3-0.2-0.6-0.5-0.6h-1.6c-0.6,0-1-0.4-1-1v-2c0-0.6 0.4-1 1-1h3.1c0.2,0 0.4-0.1 0.4-0.3 2-4 6-6.7 10.5-6.7 4.8,0 7.6,3.1 8.7,4.3 0.2,0.2 0.3,0.4 0.3,0.7s-0.1,0.6-0.3,0.7l-1.5,1.3c-0.4,0.4-1,0.3-1.4-0.1l-.1-.1c-0.9-1-2.7-2.9-5.7-2.9-2,0-3.8,0.8-5.2,2.1-0.3,0.5-0.1,1.1 0.4,1.1z"/>
</svg>
