<svg width="25" height="24" viewBox="0 0 25 24" fill="none" xmlns="http://www.w3.org/2000/svg">
<path d="M1.33815 7.76214C2.98863 6.88055 4.86399 7.34885 6.14636 7.89689L9.96911 9.53057L16.5437 6.5L20.4591 6.65417L15.03 11.6984L18.49 13.2047L22.0898 11.9491L24.5 12.9791L22.3218 15.458C22.552 15.7096 22.7605 16.0638 22.5712 16.4359C22.3239 16.9218 21.5931 17.1667 20.3943 17.1667C20.1485 17.1667 19.8829 17.1564 19.5979 17.1357C18.282 17.0405 16.8553 16.7326 15.9633 16.3514L2.29841 10.5116C1.11816 10.0072 0.530252 9.47755 0.501104 8.8923C0.485987 8.58876 0.618933 8.14618 1.33815 7.76214Z" fill="#0090BD"/>
</svg>
