<svg width="96" xmlns="http://www.w3.org/2000/svg" height="96" viewBox="0 0 96 96" xmlns:xlink="http://www.w3.org/1999/xlink">
<path fill="#d63232" d="m85.5,69h-36.738c1.077-1.857 1.902-3.87 2.448-6h34.29c1.659,0 3,1.341 3,3 0,1.656-1.341,3-3,3zm0-9h-33.708c.123-.984 .207-1.983 .207-3 0-1.02-.084-2.016-.207-3h33.708c1.659,0 3,1.341 3,3 0,1.656-1.341,3-3,3zm0-9h-34.29c-.549-2.13-1.371-4.143-2.448-6h36.738c1.659,0 3,1.341 3,3 0,1.656-1.341,3-3,3zm0-9h-38.784c-1.95-2.433-4.359-4.479-7.107-6h45.891c1.659,0 3,1.341 3,3 0,1.656-1.341,3-3,3zm0-9h-48c-1.659,0-3-1.344-3-3 0-1.659 1.341-3 3-3h48c1.659,0 3,1.341 3,3 0,1.656-1.341,3-3,3zm0-9h-48c-1.659,0-3-1.344-3-3 0-1.659 1.341-3 3-3h48c1.659,0 3,1.341 3,3 0,1.656-1.341,3-3,3zm-36,33c0,11.598-9.405,21-21,21-11.598,0-21-9.402-21-21s9.402-21 21-21c11.595,0 21,9.402 21,21zm-13.566,2.283c-.303-.717-.693-1.341-1.182-1.872s-1.044-.987-1.668-1.368c-.624-.381-1.26-.72-1.911-1.023-.651-.3-1.287-.582-1.911-.852-.624-.267-1.185-.555-1.677-.861-.495-.306-.888-.657-1.182-1.05-.294-.393-.441-.858-.441-1.398 0-.36 .066-.702 .195-1.026 .132-.321 .33-.6 .6-.831 .267-.228 .603-.411 1.002-.54 .399-.132 .87-.195 1.407-.195 .687,0 1.317,.081 1.893,.249 .573,.171 1.08,.354 1.518,.561 .438,.204 .807,.393 1.107,.567 .3,.174 .519,.258 .657,.258s.246-.036 .327-.111c.078-.075 .144-.192 .186-.357 .045-.162 .072-.369 .093-.618 .018-.252 .027-.561 .027-.924 0-.324-.006-.597-.018-.813-.012-.219-.036-.402-.063-.546-.033-.144-.069-.261-.111-.348-.048-.087-.129-.192-.255-.315-.126-.126-.381-.282-.768-.465-.387-.186-.831-.354-1.329-.501-.501-.15-1.038-.267-1.611-.354-.117-.018-.237-.012-.354-.027v-3.102h-2.952v3.102c-.543,.072-1.068,.18-1.578,.327-.993,.288-1.854,.72-2.586,1.302s-1.314,1.314-1.743,2.19c-.432,.882-.645,1.902-.645,3.063 0,1.011 .15,1.881 .447,2.604 .3,.723 .69,1.353 1.173,1.884 .483,.531 1.026,.984 1.638,1.365 .612,.384 1.245,.723 1.893,1.023 .651,.3 1.281,.582 1.893,.852s1.158,.558 1.638,.861c.483,.309 .873,.657 1.173,1.05 .3,.396 .45,.867 .45,1.416 0,.477-.087,.909-.261,1.299-.177,.387-.429,.711-.759,.975-.33,.264-.732,.465-1.206,.609-.477,.144-1.011,.216-1.614,.216-.912,0-1.716-.102-2.409-.309-.693-.207-1.29-.435-1.791-.687-.501-.249-.909-.474-1.227-.684-.318-.204-.564-.309-.741-.309-.126,0-.237,.036-.327,.102-.096,.069-.171,.186-.225,.348-.057,.165-.096,.375-.123,.639s-.039,.588-.039,.975c0,.576 .036,1.017 .102,1.323 .069,.309 .186,.543 .348,.702 .162,.162 .426,.345 .795,.558s.828,.411 1.377,.603c.549,.189 1.185,.354 1.902,.492 .717,.135 1.497,.201 2.334,.201 .036,0 .069-.006 .108-.006v2.889h2.949v-3.276c.141-.036 .291-.054 .429-.093 1.086-.324 2.037-.81 2.85-1.452 .813-.642 1.455-1.443 1.932-2.406 .474-.963 .708-2.079 .708-3.354 .003-.969-.147-1.812-.444-2.532zm10.782,12.717h38.784c1.659,0 3,1.341 3,3 0,1.656-1.341,3-3,3h-45.891c2.748-1.521 5.157-3.567 7.107-6z"/>
</svg>
