<svg width="25" height="24" viewBox="0 0 25 24" fill="none" xmlns="http://www.w3.org/2000/svg">
<path d="M23.6618 7.76214C22.0114 6.88055 20.136 7.34885 18.8536 7.89689L15.0309 9.53057L8.45626 6.5L4.54087 6.65417L9.96998 11.6984L6.51 13.2047L2.9102 11.9491L0.5 12.9791L2.67816 15.458C2.44803 15.7096 2.2395 16.0638 2.42882 16.4359C2.67608 16.9218 3.40691 17.1667 4.60569 17.1667C4.85152 17.1667 5.11706 17.1564 5.40207 17.1357C6.71799 17.0405 8.14467 16.7326 9.03675 16.3514L22.7016 10.5116C23.8818 10.0072 24.4697 9.47755 24.4989 8.8923C24.514 8.58876 24.3811 8.14618 23.6618 7.76214Z" fill="#0090BD"/>
</svg>
