<svg width="14" height="12" viewBox="0 0 14 12" fill="none" xmlns="http://www.w3.org/2000/svg">
<path d="M9.47495 6.85002C8.77495 7.37502 7.92495 7.67502 6.99995 7.67502C6.07495 7.67502 5.22495 7.37502 4.52495 6.85002C2.17495 7.00002 0.324951 8.60002 0.324951 11C0.324951 11 3.22495 11.825 6.99995 11.825C10.775 11.825 13.675 11 13.675 11C13.675 8.60002 11.825 7.00002 9.47495 6.85002ZM6.99995 6.85002C8.84995 6.85002 10.35 5.35002 10.35 3.50002C10.35 3.27502 10.325 3.07502 10.3 2.85002H10.325C9.99995 1.32502 8.64995 0.150024 7.02495 0.150024C5.77495 0.150024 4.62495 0.825024 4.09995 1.87502C3.82495 2.35002 3.67495 2.92502 3.67495 3.50002C3.64995 5.35002 5.14995 6.85002 6.99995 6.85002Z" fill="#74767A"/>
</svg>
