<?xml version="1.0" ?><svg fill="#fff" viewBox="0 0 64 64" xmlns="http://www.w3.org/2000/svg"><title/><g data-name="Layer 3" id="Layer_3"><path d="M26,35a1,1,0,0,0-1,1v3a1,1,0,0,0,2,0V36A1,1,0,0,0,26,35Z"/><path d="M38,40a1,1,0,0,0,1-1V36a1,1,0,0,0-2,0v3A1,1,0,0,0,38,40Z"/><path d="M14.69,29.55a4.36,4.36,0,0,0,1,2.05,1.68,1.68,0,0,0-1.15,1.59V39a4.53,4.53,0,0,0,3.87,4.45,10.65,10.65,0,0,0,4.27,5,11.69,11.69,0,0,0,4,1.73l.35.13a13.66,13.66,0,0,0,1.52.41v2a1.14,1.14,0,0,1-1.06,1.13l-7,.47a4.27,4.27,0,0,0-4,4.24v4h31v-4a4.27,4.27,0,0,0-4-4.24l-7-.47a1.14,1.14,0,0,1-1.06-1.13v-2A13.66,13.66,0,0,0,37,50.27l.36-.13a11.65,11.65,0,0,0,3.95-1.71,10.6,10.6,0,0,0,4.3-5A4.53,4.53,0,0,0,49.5,39v-5.8a1.69,1.69,0,0,0-.8-1.43A7,7,0,0,0,49,30.64a4.2,4.2,0,0,0,.35-1.09C50.17,24.59,51.35,9,32,9S13.83,24.59,14.69,29.55ZM39,32a15.9,15.9,0,0,1,5.14,1.88c.71,10.46-2.83,13.44-5.89,14.28l-.69-3.4a2.12,2.12,0,0,0-1.7-1.6L32,42.5l-3.86.66a2.12,2.12,0,0,0-1.7,1.6l-.68,3.34c-3.22-1-7-4.29-5.76-16.1l.76-2.18L21,32l2-4s5,4,9,4l-1-2a25,25,0,0,0,10,4ZM34.5,48.49A2.63,2.63,0,0,1,33,48.16a2.82,2.82,0,0,1,0-1.33l-.3.05a3.66,3.66,0,0,1-1.4,0l-.3-.05a2.82,2.82,0,0,1,0,1.33,2.63,2.63,0,0,1-1.47.33c-.39,0-1.11,0-2-.06a.59.59,0,0,1-.06-.39l.3-2.23a2.11,2.11,0,0,1,1.52-1.67l.88-.24a6.89,6.89,0,0,1,3.66,0l.88.24a2.11,2.11,0,0,1,1.52,1.67l.3,2.23a.58.58,0,0,1-.07.41C35.6,48.51,34.89,48.46,34.5,48.49ZM15.5,39v-5.8a.69.69,0,0,1,.69-.69H18c-.17,2-.59,6.12.55,9.93A3.51,3.51,0,0,1,15.5,39Zm21,15.81,1.43.1c-.3.82-1.53,3.25-5.92,3.32s-5.64-2.47-5.92-3.32l1.43-.1a2.14,2.14,0,0,0,2-2.13V50.88a15.73,15.73,0,0,0,5,0v1.79A2.14,2.14,0,0,0,36.49,54.8Zm12-21.61V39a3.51,3.51,0,0,1-3,3.44,21.64,21.64,0,0,0,.76-6.69,12,12,0,0,0,2.07-3A.68.68,0,0,1,48.5,33.19Z"/></g></svg>
