<?xml version="1.0" encoding="UTF-8" standalone="no"?>
<svg
   xmlns:dc="http://purl.org/dc/elements/1.1/"
   xmlns:cc="http://creativecommons.org/ns#"
   xmlns:rdf="http://www.w3.org/1999/02/22-rdf-syntax-ns#"
   xmlns:svg="http://www.w3.org/2000/svg"
   xmlns="http://www.w3.org/2000/svg"
   xmlns:sodipodi="http://sodipodi.sourceforge.net/DTD/sodipodi-0.dtd"
   xmlns:inkscape="http://www.inkscape.org/namespaces/inkscape"
   width="64pt"
   height="64pt"
   viewBox="0 0 22.577778 22.577778"
   version="1.1"
   id="svg831"
   inkscape:version="1.0 (4035a4fb49, 2020-05-01)"
   sodipodi:docname="11 - Luggage.svg"
  >
  <defs
     id="defs825">
    <pattern
       id="EMFhbasepattern"
       patternUnits="userSpaceOnUse"
       width="6"
       height="6"
       x="0"
       y="0" />
    <pattern
       id="EMFhbasepattern-9"
       patternUnits="userSpaceOnUse"
       width="6"
       height="6"
       x="0"
       y="0" />
    <pattern
       id="EMFhbasepattern-0"
       patternUnits="userSpaceOnUse"
       width="6"
       height="6"
       x="0"
       y="0" />
    <pattern
       id="EMFhbasepattern-7"
       patternUnits="userSpaceOnUse"
       width="6"
       height="6"
       x="0"
       y="0" />
    <pattern
       id="EMFhbasepattern-2"
       patternUnits="userSpaceOnUse"
       width="6"
       height="6"
       x="0"
       y="0" />
    <pattern
       id="EMFhbasepattern-98"
       patternUnits="userSpaceOnUse"
       width="6"
       height="6"
       x="0"
       y="0" />
    <pattern
       id="EMFhbasepattern-6"
       patternUnits="userSpaceOnUse"
       width="6"
       height="6"
       x="0"
       y="0" />
    <pattern
       id="EMFhbasepattern-01"
       patternUnits="userSpaceOnUse"
       width="6"
       height="6"
       x="0"
       y="0" />
    <pattern
       id="EMFhbasepattern-07"
       patternUnits="userSpaceOnUse"
       width="6"
       height="6"
       x="0"
       y="0" />
    <pattern
       id="EMFhbasepattern-8"
       patternUnits="userSpaceOnUse"
       width="6"
       height="6"
       x="0"
       y="0" />
    <pattern
       id="EMFhbasepattern-4"
       patternUnits="userSpaceOnUse"
       width="6"
       height="6"
       x="0"
       y="0" />
    <pattern
       id="EMFhbasepattern-40"
       patternUnits="userSpaceOnUse"
       width="6"
       height="6"
       x="0"
       y="0" />
    <pattern
       id="EMFhbasepattern-08"
       patternUnits="userSpaceOnUse"
       width="6"
       height="6"
       x="0"
       y="0" />
    <pattern
       id="EMFhbasepattern-04"
       patternUnits="userSpaceOnUse"
       width="6"
       height="6"
       x="0"
       y="0" />
    <pattern
       id="EMFhbasepattern-014"
       patternUnits="userSpaceOnUse"
       width="6"
       height="6"
       x="0"
       y="0" />
    <pattern
       id="EMFhbasepattern-27"
       patternUnits="userSpaceOnUse"
       width="6"
       height="6"
       x="0"
       y="0" />
    <pattern
       id="EMFhbasepattern-09"
       patternUnits="userSpaceOnUse"
       width="6"
       height="6"
       x="0"
       y="0" />
    <pattern
       id="EMFhbasepattern-5"
       patternUnits="userSpaceOnUse"
       width="6"
       height="6"
       x="0"
       y="0" />
    <pattern
       id="EMFhbasepattern-018"
       patternUnits="userSpaceOnUse"
       width="6"
       height="6"
       x="0"
       y="0" />
  </defs>
  <sodipodi:namedview
     id="base"
     pagecolor="#ffffff"
     bordercolor="#666666"
     borderopacity="1.0"
     inkscape:pageopacity="0.0"
     inkscape:pageshadow="2"
     inkscape:zoom="6.2578125"
     inkscape:cx="42.666667"
     inkscape:cy="42.666667"
     inkscape:document-units="pt"
     inkscape:current-layer="layer1"
     showgrid="false"
     units="pt"
     inkscape:window-width="1366"
     inkscape:window-height="706"
     inkscape:window-x="-8"
     inkscape:window-y="-8"
     inkscape:window-maximized="1"
     inkscape:pagecheckerboard="true"
     inkscape:showpageshadow="false"
     inkscape:object-paths="true"
     inkscape:snap-intersection-paths="true"
     inkscape:snap-smooth-nodes="true"
     inkscape:snap-midpoints="true"
     showguides="true"
     inkscape:snap-bbox="true"
     inkscape:bbox-nodes="true"
     inkscape:snap-nodes="false"
     inkscape:snap-global="true"
     inkscape:document-rotation="0">
    <inkscape:grid
       type="xygrid"
       id="grid1378" />
    <sodipodi:guide
       position="0.97013831,21.607643"
       orientation="78.000048,0"
       id="guide1380"
       inkscape:locked="false" />
    <sodipodi:guide
       position="0.97013831,0.97013129"
       orientation="0,78.000005"
       id="guide1382"
       inkscape:locked="false" />
    <sodipodi:guide
       position="21.607639,0.97013129"
       orientation="-78.000048,0"
       id="guide1384"
       inkscape:locked="false" />
    <sodipodi:guide
       position="21.607639,21.607643"
       orientation="0,-78.000005"
       id="guide1386"
       inkscape:locked="false" />
  </sodipodi:namedview>
  <metadata
     id="metadata828">
    <rdf:RDF>
      <cc:Work
         rdf:about="">
        <dc:format>image/svg+xml</dc:format>
        <dc:type
           rdf:resource="http://purl.org/dc/dcmitype/StillImage" />
        <dc:title></dc:title>
      </cc:Work>
    </rdf:RDF>
  </metadata>
  <g
     inkscape:label="Icon"
     inkscape:groupmode="layer"
     id="layer1"
     transform="translate(0,-274.42223)">
    <path
    fill="#11397E"
       id="path1349"
       style="color:#11397E;font-style:normal;font-variant:normal;font-weight:normal;font-stretch:normal;font-size:medium;line-height:normal;font-family:sans-serif;font-variant-ligatures:normal;font-variant-position:normal;font-variant-caps:normal;font-variant-numeric:normal;font-variant-alternates:normal;font-variant-east-asian:normal;font-feature-settings:normal;font-variation-settings:normal;text-indent:0;text-align:start;text-decoration:none;text-decoration-line:none;text-decoration-style:solid;text-decoration-color:#11397E;letter-spacing:normal;word-spacing:normal;text-transform:none;writing-mode:lr-tb;direction:ltr;text-orientation:mixed;dominant-baseline:auto;baseline-shift:baseline;text-anchor:start;white-space:normal;shape-padding:0;shape-margin:0;inline-size:0;clip-rule:nonzero;display:inline;overflow:visible;visibility:visible;opacity:1;isolation:auto;mix-blend-mode:normal;color-interpolation:sRGB;color-interpolation-filters:linearRGB;solid-color:#11397E;solid-opacity:1;vector-effect:none;fill:#11397E;fill-opacity:1;fill-rule:nonzero;stroke:none;stroke-width:0.529167;stroke-linecap:round;stroke-linejoin:round;stroke-miterlimit:1.5;stroke-dasharray:none;stroke-dashoffset:0;stroke-opacity:1;color-rendering:auto;image-rendering:auto;shape-rendering:auto;text-rendering:auto;enable-background:accumulate;stop-color:#000000"
       d="m 15.472437,275.39235 c -0.363717,0 -0.663128,0.30201 -0.663128,0.66573 H 14.28336 c -0.547567,0 -0.99794,0.45037 -0.99794,0.99793 v 2.3294 h 0.666378 v -2.3294 c 0,-0.18777 0.143783,-0.33221 0.331562,-0.33221 h 0.525949 c 0,0.36372 0.299411,0.66638 0.663128,0.66638 h 1.997829 c 0.363715,0 0.665725,-0.30266 0.665725,-0.66638 h 0.47459 c 0.187777,0 0.334165,0.14444 0.334165,0.33221 v 2.3294 h 0.665725 v -2.3294 c 0,-0.54756 -0.452321,-0.99793 -0.99989,-0.99793 h -0.47459 c 0,-0.36372 -0.30201,-0.66572 -0.665725,-0.66573 z m -3.186905,4.66138 c -0.731373,0 -1.329505,0.60007 -1.329501,1.33145 v 3.4476 h 3.084181 v -2.11809 c 6.67e-4,-0.18282 0.148744,-0.33086 0.331566,-0.33156 0.183834,-7.4e-4 0.333445,0.14772 0.334161,0.33156 v 2.1233 c 0.928857,0.0525 1.753807,0.90249 1.754685,1.83724 v 7.45302 h 0.921226 v -11.41356 c 6.66e-4,-0.18282 0.14874,-0.33086 0.331562,-0.33156 0.183837,-7.4e-4 0.333449,0.14772 0.334165,0.33156 v 11.41356 h 3.314976 c 0.152188,-0.21665 0.243147,-0.47893 0.243147,-0.76195 v -11.98112 c 3e-6,-0.73138 -0.598132,-1.33145 -1.329502,-1.33145 z m -5.2581978,3.85978 c -0.1431877,6.7e-4 -0.2699053,0.0928 -0.3146588,0.22885 l -0.1820327,0.54285 h 3.8571803 l -0.180734,-0.54285 c -0.04506,-0.13693 -0.173116,-0.2293 -0.3172622,-0.22885 z m -4.7276941,1.43288 c -0.7313701,0 -1.32949843,0.59747 -1.32950182,1.32884 v 8.02317 c 3.39e-6,0.73137 0.59813172,1.33146 1.32950182,1.33146 h 0.5773076 v -3.33903 H 2.7345722 c -0.1848454,7e-4 -0.3348703,-0.14932 -0.3341645,-0.33416 v -2.8625 c 3.327e-4,-0.18408 0.1500812,-0.33291 0.3341645,-0.33221 h 0.1423755 v -3.81557 z m 1.2436862,0 v 3.81557 h 1.2430339 v -3.81557 z m 1.9087601,0 v 3.81557 h 0.1449784 c 0.1833177,3.7e-4 0.3318346,0.14889 0.3322107,0.33221 v 2.8625 c 6.658e-4,0.18408 -0.1481307,0.33377 -0.3322107,0.33416 H 5.4520864 v 3.33903 h 6.0129886 v -3.33903 h -0.142376 c -0.184845,7e-4 -0.33487,-0.14932 -0.334164,-0.33416 v -2.8625 c 3.33e-4,-0.18408 0.150081,-0.33291 0.334164,-0.33221 h 0.142376 v -3.81557 z m 6.6787146,0 v 3.81557 h 1.243686 v -3.81557 z m 1.909411,0 v 3.81557 h 0.14498 c 0.183065,7.3e-4 0.331188,0.14914 0.33156,0.33221 v 2.8625 c 6.67e-4,0.18383 -0.147734,0.33342 -0.33156,0.33416 h -0.14498 v 3.33903 h 0.577311 c 0.731372,0 1.33145,-0.60009 1.331454,-1.33146 v -8.02317 c -4e-6,-0.73137 -0.600082,-1.32884 -1.331454,-1.32884 z m -6.6683112,2.13436 c 0.028161,7.9e-4 0.056141,0.005 0.083216,0.0129 l 1.2872447,0.34392 c 0.1770633,0.0484 0.2814758,0.23111 0.2333936,0.40828 l -0.3439141,1.28464 c -0.04732,0.17779 -0.2298818,0.28349 -0.4076275,0.236 L 6.9389192,289.42266 C 6.7611303,289.37535 6.655433,289.19277 6.7029226,289.01503 L 7.04684,287.72974 c 0.036059,-0.13865 0.1567752,-0.23868 0.2997066,-0.24835 0.00845,-5.3e-4 0.01691,-7.7e-4 0.025364,-6.7e-4 z m 0.2327444,0.74048 -0.1716341,0.64363 0.641021,0.17228 0.1742339,-0.64168 z m -4.5385113,1.6071 v 2.19612 c 0.7322555,0 1.464511,0 2.1967664,0 v -2.19612 z m 8.5881271,0 v 2.19612 c 0.723398,-0.004 1.493656,0 2.196766,0 v -2.19612 z m -2.9606542,1.45955 1.3509582,1.18647 c 0.201236,0.17511 0.125093,0.50393 -0.132626,0.57276 l -1.9315179,0.51555 c -0.2557587,0.0672 -0.4840195,-0.17623 -0.4004742,-0.42714 l 0.5779601,-1.70527 c 0.044644,-0.13301 0.1678895,-0.22376 0.2426805,-0.22542 0.1137756,-0.0267 0.2063185,0.0191 0.2930193,0.083 z m -0.066968,0.82759 -0.2158417,0.64427 0.7274889,-0.19439 z m -5.0833117,0.57536 v 3.33903 h 1.2430337 v -3.33903 z m 8.5874749,0 v 3.33903 h 1.243686 v -3.33903 z m 5.324511,2.10315 0.525951,1.05189 c 0.0563,0.1126 0.171255,0.18376 0.297103,0.18399 h 0.997942 c 0.12585,-2.3e-4 0.240807,-0.0714 0.297104,-0.18399 l 0.525951,-1.05189 z"
       sodipodi:nodetypes="scssccsscsscssccssccsscccccccccccscccscsscccccccsccsccccccccscccccccccccccccccccccccccccccccccccsccsccccccccccccccccccccccccccccccccccccccccccccccccccccccccc" />
  </g>
</svg>
