<svg width="24" height="24" viewBox="0 0 24 24" fill="none" xmlns="http://www.w3.org/2000/svg">
<path fill-rule="evenodd" clip-rule="evenodd" d="M4.27001 7.46792C4.20032 7.53757 4.14503 7.62027 4.10731 7.7113C4.06959 7.80232 4.05017 7.89989 4.05017 7.99842C4.05017 8.09695 4.06959 8.19452 4.10731 8.28554C4.14503 8.37657 4.20032 8.45927 4.27001 8.52892L7.47001 11.7289C7.53916 11.8006 7.62189 11.8578 7.71338 11.8971C7.80486 11.9365 7.90327 11.9572 8.00285 11.9581C8.10243 11.959 8.2012 11.9401 8.29339 11.9024C8.38558 11.8648 8.46935 11.8091 8.5398 11.7387C8.61025 11.6683 8.66598 11.5846 8.70373 11.4925C8.74149 11.4003 8.76051 11.3016 8.75969 11.202C8.75888 11.1024 8.73823 11.004 8.69897 10.9124C8.65971 10.8209 8.60261 10.7381 8.53101 10.6689L6.61101 8.74892H16.001C16.1999 8.74892 16.3907 8.6699 16.5313 8.52925C16.672 8.3886 16.751 8.19783 16.751 7.99892C16.751 7.80001 16.672 7.60924 16.5313 7.46859C16.3907 7.32794 16.1999 7.24892 16.001 7.24892H6.61001L8.53001 5.32892C8.66249 5.18674 8.73461 4.9987 8.73119 4.8044C8.72776 4.6101 8.64905 4.42471 8.51163 4.2873C8.37422 4.14988 8.18883 4.07117 7.99453 4.06774C7.80023 4.06432 7.61219 4.13644 7.47001 4.26892L4.27001 7.46792ZM16.53 12.2679L19.73 15.4679C19.7997 15.5376 19.855 15.6203 19.8927 15.7113C19.9304 15.8023 19.9499 15.8999 19.9499 15.9984C19.9499 16.097 19.9304 16.1945 19.8927 16.2855C19.855 16.3766 19.7997 16.4593 19.73 16.5289L16.53 19.7289C16.4609 19.8006 16.3781 19.8578 16.2866 19.8971C16.1952 19.9365 16.0968 19.9572 15.9972 19.9581C15.8976 19.959 15.7988 19.9401 15.7066 19.9024C15.6144 19.8648 15.5307 19.8091 15.4602 19.7387C15.3898 19.6683 15.334 19.5846 15.2963 19.4925C15.2585 19.4003 15.2395 19.3016 15.2403 19.202C15.2411 19.1024 15.2618 19.004 15.3011 18.9124C15.3403 18.8209 15.3974 18.7381 15.469 18.6689L17.389 16.7489H7.99901C7.8001 16.7489 7.60933 16.6699 7.46868 16.5292C7.32803 16.3886 7.24901 16.1978 7.24901 15.9989C7.24901 15.8 7.32803 15.6092 7.46868 15.4686C7.60933 15.3279 7.8001 15.2489 7.99901 15.2489H17.389L15.469 13.3289C15.3365 13.1867 15.2644 12.9987 15.2678 12.8044C15.2713 12.6101 15.35 12.4247 15.4874 12.2873C15.6248 12.1499 15.8102 12.0712 16.0045 12.0677C16.1988 12.0643 16.3868 12.1364 16.529 12.2689L16.53 12.2679Z" fill="#74767A"/>
</svg>
