<!-- icon666.com - MILLIONS vector ICONS FREE --><svg fill="#EEC900" viewBox="0 0 32 32" xmlns="http://www.w3.org/2000/svg"><g id="Layer_27" data-name="Layer 27"><path d="m16 2a14 14 0 1 0 14 14 14.0025 14.0025 0 0 0 -14-14zm.5 22h-7a1.0005 1.0005 0 0 1 -.75-1.66l5.55-6.34h-4.8a1 1 0 0 1 0-2h7a1.0005 1.0005 0 0 1 .75 1.66l-5.55 6.34h4.8a1 1 0 0 1 0 2zm6.71-9.29-2.71 2.7v5.59a1 1 0 0 1 -2 0v-3.59l-1.29 1.3a1.0141 1.0141 0 0 1 -1.42 0 1.008 1.008 0 0 1 0-1.42l2.71-2.7v-7.59a1 1 0 0 1 2 0v5.59l1.29-1.3a1.0041 1.0041 0 0 1 1.42 1.42z"></path></g></svg>
