<svg width="18" height="18" viewBox="0 0 18 18" fill="none" xmlns="http://www.w3.org/2000/svg">
<path d="M2 1.39876e-06L16 1.74846e-07C17.11 7.78063e-08 18 0.9 18 2L18 16C18 17.1 17.11 18 16 18L2 18C0.900001 18 1.49493e-06 17.1 1.39876e-06 16L1.74846e-07 2C7.86805e-08 0.900002 0.889999 1.4958e-06 2 1.39876e-06ZM2 16L16 16L16 4L2 4L2 16ZM7.5 10C7.5 10.83 8.17 11.5 9 11.5C9.83 11.5 10.5 10.83 10.5 10C10.5 9.17 9.83 8.5 9 8.5C8.17 8.5 7.5 9.17 7.5 10ZM9 6C11.73 6 14.06 7.66 15 10C14.06 12.34 11.73 14 9 14C6.27 14 3.94 12.34 3 10C3.94 7.66 6.27 6 9 6ZM9 12.5C10.38 12.5 11.5 11.38 11.5 10C11.5 8.62 10.38 7.5 9 7.5C7.62 7.5 6.5 8.62 6.5 10C6.5 11.38 7.62 12.5 9 12.5Z" fill="#11397E"/>
</svg>
